<?xml version="1.0" encoding="utf-8"?>
<!-- Generator: Adobe Illustrator 26.0.3, SVG Export Plug-In . SVG Version: 6.00 Build 0)  -->
<svg version="1.1" id="Ebene_1" xmlns="http://www.w3.org/2000/svg" xmlns:xlink="http://www.w3.org/1999/xlink" x="0px" y="0px"
	 viewBox="0 0 16.5 16" style="enable-background:new 0 0 16.5 16;" xml:space="preserve">
<style type="text/css">
	.st0{fill:#FFFFFF;}
</style>
<g id="Ebene_2_00000030472049429788488320000010555903719781692041_">
	<g id="Ebene_1-2">
		<path class="st0" d="M15,6.5H5.1l4-4C9.7,2,9.7,1,9.1,0.4C8.5-0.1,7.6-0.2,7,0.4c0,0,0,0,0,0L0.4,6.9c-0.6,0.6-0.6,1.5,0,2.1
			L7,15.6C7.3,15.8,7.6,16,8,16c0.4,0,0.8-0.2,1.1-0.4c0.6-0.6,0.6-1.5,0-2.1L5.1,9.5H15c0.8,0,1.5-0.7,1.5-1.5S15.8,6.5,15,6.5z"/>
	</g>
</g>
</svg>
